# xmcd
#
# Track frame offsets: 
#        150
#        22460
#        43809
#        63298
#        83907
#        95760
#        116621
#        139334
#        162518
#        180852
#
# Disc length: 2628 seconds
#
# Revision: 0
# Processed by: cddbd v1.5.2PL0 Copyright (c) Steve Scherf et al.
# Submitted via: ExactAudioCopyFreeDBPlugin 1.0
#
DISCID=8c0a420a
DTITLE=Rick Shea - Sweet Bernardine
DYEAR=2013
DGENRE=Country
TTITLE0=Mexicali Train
TTITLE1=Mariachi Hotel
TTITLE2=Gregory Ray DeFord
TTITLE3=Shake it Little Sugaree
TTITLE4=My Darling Lives in Darlington
TTITLE5=John Shea from Kenmare
TTITLE6=Honky Tonk Blues
TTITLE7=Sweet Bernardine
TTITLE8=Time to Say Goodbye
TTITLE9=Streamline Cannonball
EXTD=
EXTT0=
EXTT1=
EXTT2=
EXTT3=
EXTT4=
EXTT5=
EXTT6=
EXTT7=
EXTT8=
EXTT9=
PLAYORDER=
